<?xml version="1.0" encoding="UTF-8"?>
<svg xmlns="http://www.w3.org/2000/svg" version="1.1" viewBox="0 0 348 94.1">
  <defs>
    <style>
      .cls-1 {
        fill: #ec2f46;
      }

      .cls-2 {
        fill: #ed1d24;
      }

      .cls-3 {
        fill: #fff;
      }
    </style>
  </defs>
  <!-- Generator: Adobe Illustrator 28.7.1, SVG Export Plug-In . SVG Version: 1.2.0 Build 142)  -->
  <g>
    <g id="Camada_1">
      <path class="cls-3" d="M73.1,61.3h-10.7c-.2-1.4-.6-2.6-1.2-3.7-.6-1.1-1.4-2-2.3-2.8s-2-1.3-3.3-1.8c-1.2-.4-2.6-.6-4-.6-2.6,0-4.9.6-6.8,1.9-1.9,1.3-3.4,3.1-4.5,5.5s-1.6,5.3-1.6,8.8.5,6.5,1.6,8.9,2.6,4.2,4.5,5.4c1.9,1.2,4.2,1.8,6.7,1.8s2.7-.2,3.9-.6,2.3-.9,3.3-1.6,1.7-1.6,2.3-2.6,1.1-2.2,1.3-3.5h10.7c-.3,2.3-1,4.5-2.1,6.6s-2.6,4-4.4,5.7-4,3-6.6,3.9c-2.5.9-5.4,1.4-8.7,1.4s-8.5-1-12-3-6.3-4.9-8.3-8.7c-2-3.8-3-8.4-3-13.8s1-10,3.1-13.8,4.8-6.7,8.4-8.7c3.5-2,7.5-3,11.9-3s5.6.4,8.1,1.2,4.7,2,6.6,3.5,3.5,3.4,4.7,5.7c1.2,2.2,2,4.8,2.3,7.7h0v.2h0Z"/>
      <path class="cls-3" d="M124.1,68.7c0,5.4-1,10-3.1,13.8s-4.9,6.7-8.4,8.7-7.5,3-11.9,3-8.5-1-12-3-6.3-4.9-8.4-8.7-3.1-8.4-3.1-13.8,1-10,3.1-13.8,4.9-6.7,8.4-8.7,7.5-3,12-3,8.4,1,11.9,3c3.6,2,6.4,4.9,8.4,8.7,2.1,3.8,3.1,8.4,3.1,13.8ZM113.3,68.7c0-3.5-.5-6.5-1.6-8.9-1-2.4-2.5-4.2-4.4-5.5-1.9-1.2-4.2-1.9-6.7-1.9s-4.8.6-6.7,1.9c-1.9,1.2-3.4,3.1-4.5,5.5-1,2.4-1.6,5.4-1.6,8.9s.5,6.5,1.6,8.9,2.6,4.2,4.5,5.5c1.9,1.2,4.2,1.9,6.7,1.9s4.8-.6,6.7-1.9c1.9-1.2,3.4-3.1,4.4-5.5,1.1-2.4,1.6-5.4,1.6-8.9Z"/>
      <path class="cls-3" d="M129.2,43.9h13.1l13.8,33.4h.6l13.8-33.3h13.1v49.6h-10.3v-32.3h-.4l-13,32.1h-7l-13-32.2h-.4v32.4h-10.3v-49.6h0Z"/>
      <path class="cls-3" d="M189.5,93.5v-49.6h20.1c3.7,0,6.8.5,9.2,1.6,2.5,1.1,4.3,2.6,5.6,4.5,1.2,1.9,1.9,4.1,1.9,6.6s-.4,3.6-1.2,5.1-1.9,2.6-3.2,3.6c-1.4.9-2.9,1.6-4.6,2v.5c1.9,0,3.7.6,5.4,1.6s3,2.4,4.1,4.1c1,1.8,1.6,3.9,1.6,6.3s-.7,5-2,7.1-3.2,3.7-5.8,4.9c-2.6,1.2-5.7,1.8-9.5,1.8h-21.6ZM200.1,85h8.6c3,0,5.1-.6,6.5-1.7s2-2.6,2-4.5-.3-2.6-1-3.6-1.6-1.9-2.9-2.5c-1.2-.6-2.7-.9-4.4-.9h-8.9v13.2h0ZM200.1,64.7h7.9c1.4,0,2.7-.2,3.9-.8,1.1-.5,2-1.2,2.7-2.2.7-.9,1-2.1,1-3.4s-.6-3.2-1.9-4.3c-1.3-1.1-3.1-1.7-5.4-1.7h-8.1v12.3h0Z"/>
      <path class="cls-3" d="M278.5,68.7c0,5.4-1,10-3.1,13.8s-4.9,6.7-8.4,8.7-7.5,3-11.9,3-8.5-1-12-3-6.3-4.9-8.4-8.7c-2.1-3.8-3.1-8.4-3.1-13.8s1-10,3.1-13.8,4.9-6.7,8.4-8.7,7.5-3,12-3,8.4,1,11.9,3c3.6,2,6.4,4.9,8.4,8.7,2.1,3.8,3.1,8.4,3.1,13.8ZM267.7,68.7c0-3.5-.5-6.5-1.6-8.9-1-2.4-2.5-4.2-4.4-5.5-1.9-1.2-4.1-1.9-6.7-1.9s-4.8.6-6.7,1.9c-1.9,1.2-3.4,3.1-4.5,5.5-1,2.4-1.6,5.4-1.6,8.9s.5,6.5,1.6,8.9,2.6,4.2,4.5,5.5c1.9,1.2,4.1,1.9,6.7,1.9s4.8-.6,6.7-1.9c1.9-1.2,3.4-3.1,4.4-5.5,1.1-2.4,1.6-5.4,1.6-8.9Z"/>
      <path class="cls-3" d="M298.3,86v-34.3h8.8v34.3h-8.8ZM285.3,73.2v-8.7h34.7v8.7h-34.7Z"/>
      <path class="cls-3" d="M30.9,1.1h7.4s.2,0,.2.1c.6,2.1,1.2,4.2,1.8,6.4.2.6.3,1.1.5,1.7v-.5c.2-.9.4-1.8.6-2.7.4-1.6.8-3.2,1.1-4.9,0,0,0-.1.2-.1h7.4s.2,0,.2.2v25.1h-4.8v-14.5h0c-.2,1-.3,1.9-.5,2.9-.2,1.1-.4,2.1-.6,3.2-.3,1.6-.6,3.1-.9,4.7,0,.7-.3,1.5-.4,2.2,0,.5-.2,1-.3,1.5h-2.5c-.2-1.2-.5-2.4-.8-3.6-.2-1.1-.5-2.2-.7-3.4-.3-1.2-.5-2.5-.8-3.7-.2-1-.4-2-.6-3,0-.3,0-.5-.2-.8v14.5h-5.6s-.1,0-.1-.1V1.1h-.6Z"/>
      <path class="cls-3" d="M69.1,26.4V1.3c0-.1,0-.2.2-.2h7.1c1.1,0,2.1.1,3.1.5.8.3,1.4.7,2,1.2.6.6,1.1,1.4,1.3,2.3.2.6.3,1.3.3,2v1.7c0,1-.4,1.9-1,2.8-.5.7-1,1.3-1.6,1.9-.1.1-.1.3,0,.5.5.6,1.1,1.1,1.5,1.8s.7,1.4.7,2.3v8.6h-4.8v-8.5c0-.7-.5-1.3-1.1-1.8-.7-.5-1.4-.7-2.2-.6,0,0-.2,0-.2.2v10.7h-5.3v-.3ZM74.4,8.5v2.8c0,0,0,.1.2.1.4,0,.9-.1,1.3-.3.8-.4,1.4-1,1.6-1.9,0-.7,0-1.3-.2-2-.2-.6-.6-1-1.2-1.3-.5-.2-1-.2-1.5-.3,0,0-.2,0-.2.2v2.7h0Z"/>
      <path class="cls-3" d="M51.5,26.4v-.2c.3-1.5.7-3.1,1-4.6.4-1.8.7-3.5,1.1-5.3.4-2,.8-3.9,1.2-5.9.4-1.8.8-3.6,1.1-5.4.2-1.2.5-2.4.8-3.6,0-.3.1-.4.4-.4h5.6c0,0,.2,0,.2.2.3,1.4.5,2.8.8,4.2.3,1.6.6,3.2.9,4.7.3,1.7.7,3.4,1,5.1.3,1.6.6,3.2,1,4.9.4,2,.8,4.1,1.2,6.1h0c0,.1-5.2.1-5.2.1h0c0-.6-.2-1.2-.3-1.8,0-.8-.3-1.7-.4-2.5,0,0,0-.1-.2-.1h-4.4c0,.4,0,.6-.2.9-.2,1.2-.5,2.4-.7,3.6h-5.2.3ZM59.9,9.7h0c0,.7-.2,1.4-.4,2-.2,1.3-.5,2.6-.7,3.9,0,.7-.3,1.4-.4,2.1h0c0,.1,2.7.1,2.7.1,0,0,.2,0,0-.1v-.7c-.2-1.1-.4-2.3-.6-3.4,0-.9-.3-1.7-.4-2.5,0-.4-.2-.9-.2-1.3h0Z"/>
      <path class="cls-3" d="M87,26.4c0-.8-.2-1.6-.4-2.5s-.2-1.6-.4-2.5c0-.9-.3-1.7-.4-2.6,0-.8-.2-1.6-.4-2.5,0-.9-.2-1.7-.4-2.6,0-.8-.2-1.6-.4-2.4,0-.9-.2-1.7-.4-2.6,0-.8-.2-1.6-.4-2.5,0-.8-.2-1.6-.4-2.4,0-.9-.3-1.8-.4-2.6,0-.1,0-.2.2-.2h5s.2,0,.2.2c0,1.1.3,2.2.4,3.3,0,1.1.3,2.2.4,3.3,0,.8.2,1.7.3,2.5,0,.9.2,1.8.3,2.7,0,.4,0,.9.2,1.3,0-.3,0-.6.2-.8,0-.7.2-1.4.4-2.1.2-1,.4-2,.5-2.9.2-1.2.4-2.4.7-3.6.2-1.2.4-2.4.7-3.5,0-.2,0-.3.3-.3h4.7s.2,0,.2.2c-.3,1.6-.6,3.1-.8,4.7-.3,1.7-.6,3.5-.9,5.2s-.6,3.3-.9,5l-.8,4.8c-.2,1.3-.5,2.7-.7,4,0,.4-.2.9-.2,1.3h0c0,.1-6.5.1-6.5.1h.1Z"/>
      <path class="cls-3" d="M99.1,26.4V1.3h0c0-.1,0-.2.2-.2h11.4s.2,0,.2.2v4.4c0,0,0,.2-.2.2h-6.3s-.2,0-.2.2v4.6c0,0,0,.1.2.1h5.7v4.7c0,.2,0,.1-.2.1h-5.6v5.9c0,.1,0,.2.2.2h7s.2,0,.2.2v4.6h-12.6,0Z"/>
      <path class="cls-3" d="M112.7,26.4V1.3h0c0-.1,0-.2.2-.2h5.8s.2,0,.2.2v20.1h0c0,.2,0,.3.2.3h5.2s.2,0,.2.2v4.6h-11.8,0Z"/>
      <rect class="cls-2" x="132.9" y="4.8" width="5.1" height="17.9"/>
      <rect class="cls-2" x="128.5" y="11.6" width="13.8" height="4.4"/>
      <path class="cls-3" d="M174.4,0h7.4c.1,0,.2,0,.2.1.6,2.1,1.2,4.2,1.8,6.4.2.6.3,1.1.5,1.7,0-.2,0-.3.1-.5.2-.9.4-1.8.6-2.7.4-1.6.8-3.2,1.1-4.9C186.1,0,186.1,0,186.2,0h7.4C193.7,0,193.8,0,193.8.2v25.1h-4.8v-.9c0-.8,0-1.7-.1-2.5v-1.7c0-.9,0-1.7-.1-2.5v-1.7c0-1,0-2.1-.1-3.1v-2.1h0c-.2,1-.3,1.9-.5,2.9-.2,1.1-.4,2.1-.6,3.2-.3,1.6-.6,3.1-.9,4.7-.1.7-.3,1.5-.4,2.2-.1.5-.2,1-.3,1.5h-2.5c-.2-1.2-.5-2.4-.8-3.6-.2-1.1-.5-2.2-.7-3.4-.3-1.2-.5-2.5-.8-3.7-.2-1-.4-2-.6-3,0-.3-.1-.5-.2-.8v14.5h-5.6s-.1,0-.1-.1V0h-.3,0Z"/>
      <path class="cls-3" d="M212.6,25.4V.3c0,0,0-.2.2-.2h7.1c1.1,0,2.1.1,3.1.5.8.3,1.4.6,2,1.2s1.1,1.4,1.3,2.3c.2.6.3,1.3.3,2v1.7c0,1-.4,1.9-1,2.8-.5.7-1,1.3-1.6,1.9-.1.1-.1.3,0,.5.5.6,1.1,1.1,1.5,1.8s.7,1.4.7,2.3v8.6h-4.8v-8.5c-.1-.7-.5-1.3-1.1-1.8s-1.4-.7-2.2-.6c-.1,0-.2,0-.2.2v10.7h-5.3v-.3ZM217.9,7.5v2.7c0,0,0,.1.1.1.4,0,.9-.1,1.3-.3.8-.4,1.4-1,1.6-1.9.1-.7,0-1.3-.2-2-.2-.6-.6-1-1.2-1.3-.5-.2-1-.2-1.5-.3-.1,0-.2,0-.2.2v2.7h0Z"/>
      <path class="cls-3" d="M195.1,25.4v-.2c.3-1.5.6-3.1,1-4.6.4-1.8.7-3.5,1.1-5.3.4-2,.8-3.9,1.2-5.9.4-1.8.8-3.6,1.1-5.4.2-1.2.5-2.4.8-3.6,0-.4,0-.3.4-.3h5.6c.1,0,.2,0,.2.2.3,1.4.6,2.8.8,4.2.3,1.6.6,3.2.9,4.7.3,1.7.7,3.4,1,5.1.3,1.6.6,3.2,1,4.9.4,2,.8,4.1,1.2,6.1h0c0,.1-5.2.1-5.2.1h0c-.1-.6-.2-1.2-.3-1.8-.1-.8-.3-1.7-.4-2.5,0,0,0-.1-.1-.1h-4.1s-.1,0-.1.1c0,.3-.1.5-.1.8-.2,1.2-.4,2.4-.7,3.6h-5.3,0ZM203.5,8.7h0c-.1.7-.2,1.4-.4,2-.2,1.3-.5,2.6-.7,3.9-.1.7-.3,1.4-.4,2.1,0,0,0,.1.1.1h2.7c0,0,.1,0,.1-.1,0-.2,0-.5-.1-.7-.2-1.1-.4-2.3-.6-3.4-.1-.9-.3-1.7-.4-2.5,0-.4-.1-.9-.2-1.3h-.1Z"/>
      <path class="cls-3" d="M230.6,25.4c-.1-.8-.2-1.6-.4-2.5s-.2-1.6-.4-2.5c-.1-.9-.3-1.7-.4-2.6-.1-.8-.2-1.6-.4-2.4-.1-.9-.2-1.7-.4-2.6-.1-.8-.2-1.6-.4-2.4-.1-.9-.2-1.7-.4-2.6-.1-.8-.2-1.6-.4-2.5-.1-.8-.2-1.6-.4-2.4-.1-.9-.3-1.8-.4-2.6.2-.1.4-.2.5-.2h5c.1,0,.2,0,.2.2.1,1.1.3,2.2.4,3.3.1,1.1.3,2.2.4,3.3.1.8.2,1.7.3,2.5.1.9.2,1.8.3,2.6,0,.4.1.9.2,1.3,0-.3.1-.6.2-.8.1-.7.2-1.4.4-2.1.2-1,.4-2,.5-2.9.2-1.2.4-2.4.7-3.6.2-1.2.4-2.4.6-3.5.1-.3,0-.3.4-.3h4.7c.1,0,.2,0,.2.2-.3,1.6-.6,3.1-.8,4.7-.3,1.7-.6,3.5-.9,5.2-.3,1.7-.6,3.3-.9,5l-.8,4.8c-.2,1.3-.5,2.7-.7,4,0,.4-.1.9-.2,1.3h0c0,.1-6.5.1-6.5.1h-.2Z"/>
      <path class="cls-3" d="M242.6,25.4V.3h0c0-.1,0-.2.2-.2h11.4c.1,0,.2,0,.2.2v4.4c0,0,0,.2-.2.2h-6.3c-.1,0-.2,0-.2.2v4.6c0,0,0,.1.2.1h5.7s.1,0,.1.1v4.6c0,.2-.1.1-.2.1h-5.6c0,0-.1,0-.1.1v5.8c0,.1,0,.2.2.2h7c.1,0,.2,0,.2.2v4.6h-12.6,0Z"/>
      <path class="cls-3" d="M256.3,25.4V.3h0c0-.1,0-.2.2-.2h5.8c.1,0,.2,0,.2.2v20.1h0c0,.2,0,.3.2.3h5.1c.1,0,.2,0,.2.2v4.6h-11.7Z"/>
      <path class="cls-2" d="M273.6,25.6h-4V0h4v10.9h4.6V0h4.1v25.5h-4.1v-10.9h-4.6v10.9h0Z"/>
      <path class="cls-2" d="M284.8,6.4c0-4,2.1-6.3,6-6.3s6,2.3,6,6.3v13c0,1.4-.2,2.6-.8,3.5.2.5.5.5,1.1.5h.4v3.5h-.5c-1.8,0-2.9-.6-3.4-1.7-.8.3-1.7.5-2.8.5-3.9,0-6-2.3-6-6.3V6.4h0ZM288.7,19.7c0,1.8.8,2.5,2,2.5s2-.7,2-2.5V6.2c0-1.8-.8-2.5-2-2.5s-2,.7-2,2.5v13.5Z"/>
      <path class="cls-2" d="M299.2,4V0h3.9v3.5l-1.8,4.1h-1.6l1.1-3.7h-1.6Z"/>
      <path class="cls-2" d="M311.2,0c3.9,0,5.9,2.3,5.9,6.4v.8h-3.8v-1.1c0-1.8-.7-2.5-2-2.5s-2,.7-2,2.5c0,5.2,7.8,6.2,7.8,13.5s-2,6.4-6,6.4-6-2.3-6-6.4v-1.6h3.8v1.8c0,1.8.8,2.5,2.1,2.5s2.1-.7,2.1-2.5c0-5.2-7.8-6.2-7.8-13.5S307.3,0,311.2,0h0Z"/>
      <path class="cls-1" d="M24.4,68.2h-8.4c-8.3,0-15-6.7-15-15v-23c0-8.3,6.7-15,15-15h8.4v-1h-8.4c-8.8,0-16,7.1-16,16v23c0,8.8,7.2,16,16,16h8.4v-1Z"/>
    </g>
  </g>
</svg>